<svg id="visual" viewBox="0 0 900 600" width="900" height="600" xmlns="http://www.w3.org/2000/svg" xmlns:xlink="http://www.w3.org/1999/xlink" version="1.1"><g transform="translate(430.61024565331667 261.46390364456704)"><path d="M121.7 -156.3C169.9 -132.4 229.5 -113.2 260.3 -71.9C291 -30.7 292.9 32.5 266.2 77.7C239.5 122.9 184.1 150 135 185.2C85.8 220.4 42.9 263.7 -15.3 284.8C-73.5 305.8 -146.9 304.6 -180.1 264.2C-213.2 223.8 -206 144.2 -215.9 78.5C-225.7 12.8 -252.7 -39 -244.6 -84.3C-236.6 -129.6 -193.5 -168.4 -146.9 -192.7C-100.3 -217.1 -50.2 -227 -6.7 -217.8C36.7 -208.6 73.5 -180.1 121.7 -156.3" fill="#4FACF7"></path></g></svg>